<?xml version="1.0" encoding="UTF-8"?>
<svg xmlns="http://www.w3.org/2000/svg" xmlns:xlink="http://www.w3.org/1999/xlink" width="344px" height="344px" viewBox="0 0 344 344" version="1.1">
<defs>
<radialGradient id="radial0" gradientUnits="userSpaceOnUse" cx="32" cy="32" fx="32" fy="32" r="33.002" spreadMethod="reflect" gradientTransform="matrix(5.375,0,0,5.375,0,0)">
<stop offset="0" style="stop-color:rgb(95.686275%,87.843137%,61.568627%);stop-opacity:1;"/>
<stop offset="0.226" style="stop-color:rgb(97.254902%,90.980392%,70.980392%);stop-opacity:1;"/>
<stop offset="0.513" style="stop-color:rgb(98.823529%,94.117647%,80.392157%);stop-opacity:1;"/>
<stop offset="0.778" style="stop-color:rgb(99.607843%,95.686275%,86.27451%);stop-opacity:1;"/>
<stop offset="1" style="stop-color:rgb(100%,96.470588%,88.235294%);stop-opacity:1;"/>
</radialGradient>
<linearGradient id="linear0" gradientUnits="userSpaceOnUse" x1="33" y1="58" x2="33" y2="6" spreadMethod="reflect" gradientTransform="matrix(5.375,0,0,5.375,0,0)">
<stop offset="0" style="stop-color:rgb(25.490196%,74.901961%,92.54902%);stop-opacity:1;"/>
<stop offset="0.235" style="stop-color:rgb(29.803922%,77.254902%,93.72549%);stop-opacity:1;"/>
<stop offset="0.651" style="stop-color:rgb(41.960784%,83.137255%,96.470588%);stop-opacity:1;"/>
<stop offset="1" style="stop-color:rgb(53.72549%,89.411765%,99.215686%);stop-opacity:1;"/>
</linearGradient>
<linearGradient id="linear1" gradientUnits="userSpaceOnUse" x1="21.895" y1="21.09" x2="22.927" y2="6.185" spreadMethod="reflect" gradientTransform="matrix(5.375,0,0,5.375,0,0)">
<stop offset="0" style="stop-color:rgb(50.588235%,86.666667%,96.862745%);stop-opacity:1;"/>
<stop offset="0.548" style="stop-color:rgb(58.039216%,89.411765%,98.431373%);stop-opacity:1;"/>
<stop offset="1" style="stop-color:rgb(61.960784%,90.980392%,99.215686%);stop-opacity:1;"/>
</linearGradient>
<linearGradient id="linear2" gradientUnits="userSpaceOnUse" x1="41.5" y1="58" x2="41.5" y2="41" spreadMethod="reflect" gradientTransform="matrix(5.375,0,0,5.375,0,0)">
<stop offset="0" style="stop-color:rgb(20%,70.980392%,90.980392%);stop-opacity:1;"/>
<stop offset="0.489" style="stop-color:rgb(24.705882%,74.117647%,92.156863%);stop-opacity:1;"/>
<stop offset="1" style="stop-color:rgb(27.058824%,75.686275%,92.941176%);stop-opacity:1;"/>
</linearGradient>
<linearGradient id="linear3" gradientUnits="userSpaceOnUse" x1="33" y1="37.822" x2="33" y2="4.768" spreadMethod="reflect" gradientTransform="matrix(5.375,0,0,5.375,0,0)">
<stop offset="0" style="stop-color:rgb(8.235294%,36.078431%,87.058824%);stop-opacity:1;"/>
<stop offset="0.278" style="stop-color:rgb(12.156863%,49.803922%,89.803922%);stop-opacity:1;"/>
<stop offset="0.569" style="stop-color:rgb(15.294118%,61.176471%,92.156863%);stop-opacity:1;"/>
<stop offset="0.82" style="stop-color:rgb(17.254902%,68.627451%,93.72549%);stop-opacity:1;"/>
<stop offset="1" style="stop-color:rgb(18.039216%,70.980392%,94.117647%);stop-opacity:1;"/>
</linearGradient>
<linearGradient id="linear4" gradientUnits="userSpaceOnUse" x1="33" y1="26" x2="33" y2="8" spreadMethod="reflect" gradientTransform="matrix(5.375,0,0,5.375,0,0)">
<stop offset="0" style="stop-color:rgb(43.529412%,70.588235%,94.117647%);stop-opacity:1;"/>
<stop offset="0.495" style="stop-color:rgb(45.098039%,76.470588%,95.294118%);stop-opacity:1;"/>
<stop offset="1" style="stop-color:rgb(46.27451%,80.392157%,96.078431%);stop-opacity:1;"/>
</linearGradient>
<linearGradient id="linear5" gradientUnits="userSpaceOnUse" x1="33" y1="37.764" x2="33" y2="25.764" spreadMethod="reflect" gradientTransform="matrix(5.375,0,0,5.375,0,0)">
<stop offset="0" style="stop-color:rgb(5.098039%,27.843137%,63.137255%);stop-opacity:1;"/>
<stop offset="0.365" style="stop-color:rgb(7.45098%,37.254902%,72.941176%);stop-opacity:1;"/>
<stop offset="0.734" style="stop-color:rgb(9.019608%,43.921569%,80%);stop-opacity:1;"/>
<stop offset="1" style="stop-color:rgb(9.803922%,46.27451%,82.352941%);stop-opacity:1;"/>
</linearGradient>
</defs>
<g id="surface234907">
<path style=" stroke:none;fill-rule:nonzero;fill:url(#radial0);" d="M 298.066406 245.464844 C 300.753906 250.292969 306.148438 252.652344 311.675781 252.625 C 321.082031 252.582031 328.621094 260.597656 327.808594 270.160156 C 327.09375 278.628906 319.457031 284.875 310.953125 284.875 L 258 284.875 L 258 290.25 L 37.625 290.25 C 28.433594 290.25 21.039062 282.558594 21.523438 273.257812 C 21.976562 264.535156 29.804688 258 38.539062 258 L 43 258 C 49.53125 258 54.695312 252.179688 53.605469 245.445312 C 52.746094 240.160156 47.777344 236.5 42.425781 236.5 L 16.125 236.5 C 6.933594 236.5 -0.460938 228.808594 0.0234375 219.507812 C 0.476562 210.785156 8.304688 204.25 17.039062 204.25 L 51.0625 204.25 C 58.484375 204.25 64.5 198.234375 64.5 190.8125 C 64.5 183.390625 58.484375 177.375 51.0625 177.375 C 43.640625 177.375 37.625 171.359375 37.625 163.9375 C 37.625 156.515625 43.640625 150.5 51.0625 150.5 L 96.75 150.5 L 96.75 112.875 L 56.4375 112.875 C 45.714844 112.875 37.082031 103.898438 37.652344 93.050781 C 38.183594 82.878906 47.316406 75.25 57.5 75.25 L 96.75 75.25 L 96.75 53.75 L 303.6875 53.75 C 314.410156 53.75 323.042969 62.726562 322.472656 73.574219 C 321.941406 83.746094 312.808594 91.375 302.625 91.375 L 287.5625 91.375 C 276.839844 91.375 268.207031 100.351562 268.777344 111.199219 C 269.308594 121.371094 278.441406 129 288.625 129 L 301 129 C 310.550781 129 318.167969 137.308594 317.007812 147.09375 C 316.042969 155.203125 308.695312 160.917969 300.539062 161.253906 C 294.105469 161.523438 289.132812 167.453125 290.464844 174.1875 C 291.476562 179.28125 296.285156 182.75 301.476562 182.75 L 325.1875 182.75 C 335.910156 182.75 344.542969 191.726562 343.972656 202.574219 C 343.441406 212.746094 334.308594 220.375 324.125 220.375 L 311.75 220.375 C 299.96875 220.375 291.140625 233.007812 298.066406 245.464844 Z M 13.4375 177.375 C 20.859375 177.375 26.875 171.359375 26.875 163.9375 C 26.875 156.515625 20.859375 150.5 13.4375 150.5 C 6.015625 150.5 0 156.515625 0 163.9375 C 0 171.359375 6.015625 177.375 13.4375 177.375 Z M 13.4375 177.375 "/>
<path style=" stroke:none;fill-rule:nonzero;fill:url(#linear0);" d="M 268.75 311.75 L 86 311.75 C 77.09375 311.75 69.875 304.53125 69.875 295.625 L 69.875 48.375 C 69.875 39.46875 77.09375 32.25 86 32.25 L 268.75 32.25 C 277.65625 32.25 284.875 39.46875 284.875 48.375 L 284.875 295.625 C 284.875 304.53125 277.65625 311.75 268.75 311.75 Z M 268.75 311.75 "/>
<path style=" stroke:none;fill-rule:nonzero;fill:url(#linear1);" d="M 134.375 99.4375 C 134.375 92.015625 128.359375 86 120.9375 86 L 115.5625 86 C 108.140625 86 102.125 79.984375 102.125 72.5625 C 102.125 65.140625 108.140625 59.125 115.5625 59.125 L 161.25 59.125 C 168.671875 59.125 174.6875 53.109375 174.6875 45.6875 C 174.6875 38.265625 168.671875 32.25 161.25 32.25 L 86 32.25 C 77.09375 32.25 69.875 39.46875 69.875 48.375 L 69.875 112.875 L 120.9375 112.875 C 128.359375 112.875 134.375 106.859375 134.375 99.4375 Z M 134.375 99.4375 "/>
<path style=" stroke:none;fill-rule:nonzero;fill:url(#linear2);" d="M 236.5 220.375 L 284.875 220.375 L 284.875 295.625 C 284.875 304.53125 277.65625 311.75 268.75 311.75 L 177.375 311.75 C 168.46875 311.75 161.25 304.53125 161.25 295.625 C 161.25 286.71875 168.46875 279.5 177.375 279.5 L 239.1875 279.5 C 246.609375 279.5 252.625 273.484375 252.625 266.0625 C 252.625 258.640625 246.609375 252.625 239.1875 252.625 L 236.5 252.625 C 227.59375 252.625 220.375 245.40625 220.375 236.5 C 220.375 227.59375 227.59375 220.375 236.5 220.375 Z M 193.5 220.375 C 184.59375 220.375 177.375 227.59375 177.375 236.5 C 177.375 245.40625 184.59375 252.625 193.5 252.625 C 202.40625 252.625 209.625 245.40625 209.625 236.5 C 209.625 227.59375 202.40625 220.375 193.5 220.375 Z M 193.5 220.375 "/>
<path style=" stroke:none;fill-rule:nonzero;fill:url(#linear3);" d="M 155.875 32.25 L 198.875 32.25 L 198.875 150.5 L 155.875 150.5 Z M 155.875 32.25 "/>
<path style=" stroke:none;fill-rule:nonzero;fill:url(#linear4);" d="M 180.0625 139.75 L 155.875 139.75 L 155.875 123.625 L 180.0625 123.625 C 184.511719 123.625 188.125 127.238281 188.125 131.6875 C 188.125 136.136719 184.511719 139.75 180.0625 139.75 Z M 188.125 77.9375 C 188.125 73.488281 184.511719 69.875 180.0625 69.875 L 155.875 69.875 L 155.875 86 L 180.0625 86 C 184.511719 86 188.125 82.386719 188.125 77.9375 Z M 166.625 104.8125 C 166.625 109.261719 170.238281 112.875 174.6875 112.875 L 198.875 112.875 L 198.875 96.75 L 174.6875 96.75 C 170.238281 96.75 166.625 100.363281 166.625 104.8125 Z M 166.625 51.0625 C 166.625 55.511719 170.238281 59.125 174.6875 59.125 L 198.875 59.125 L 198.875 43 L 174.6875 43 C 170.238281 43 166.625 46.613281 166.625 51.0625 Z M 166.625 51.0625 "/>
<path style=" stroke:none;fill-rule:nonzero;fill:url(#linear5);" d="M 214.5 178.015625 L 206.855469 147.453125 C 205.636719 142.566406 202.34375 138.453125 197.832031 136.203125 L 197.820312 136.195312 C 195.429688 135 192.789062 134.375 190.109375 134.375 L 164.636719 134.375 C 161.960938 134.375 159.316406 135 156.917969 136.195312 L 156.90625 136.203125 C 152.402344 138.453125 149.109375 142.5625 147.882812 147.453125 L 140.238281 178.015625 C 139.464844 181.109375 139.589844 184.355469 140.597656 187.382812 L 140.609375 187.410156 C 142.898438 194.257812 149.3125 198.875 156.53125 198.875 L 198.226562 198.875 C 205.441406 198.875 211.851562 194.257812 214.132812 187.410156 L 214.144531 187.382812 C 215.152344 184.355469 215.273438 181.105469 214.5 178.015625 Z M 190.8125 182.75 L 163.9375 182.75 C 159.488281 182.75 155.875 179.136719 155.875 174.6875 C 155.875 170.238281 159.488281 166.625 163.9375 166.625 L 190.8125 166.625 C 195.261719 166.625 198.875 170.238281 198.875 174.6875 C 198.875 179.136719 195.261719 182.75 190.8125 182.75 Z M 190.8125 182.75 "/>
</g>
</svg>