<?xml version="1.0" encoding="UTF-8"?>
<svg xmlns="http://www.w3.org/2000/svg" xmlns:xlink="http://www.w3.org/1999/xlink" width="344px" height="344px" viewBox="0 0 344 344" version="1.1">
<defs>
<radialGradient id="radial0" gradientUnits="userSpaceOnUse" cx="32" cy="31.5" fx="32" fy="31.5" r="30.775" spreadMethod="reflect" gradientTransform="matrix(5.375,0,0,5.375,0,0)">
<stop offset="0" style="stop-color:rgb(95.686275%,91.372549%,76.470588%);stop-opacity:1;"/>
<stop offset="0.219" style="stop-color:rgb(97.254902%,93.333333%,80.392157%);stop-opacity:1;"/>
<stop offset="0.644" style="stop-color:rgb(99.215686%,95.686275%,86.27451%);stop-opacity:1;"/>
<stop offset="1" style="stop-color:rgb(100%,96.470588%,88.235294%);stop-opacity:1;"/>
</radialGradient>
<linearGradient id="linear0" gradientUnits="userSpaceOnUse" x1="49.5" y1="52" x2="49.5" y2="11" spreadMethod="reflect" gradientTransform="matrix(5.375,0,0,5.375,0,0)">
<stop offset="0" style="stop-color:rgb(8.235294%,36.078431%,87.058824%);stop-opacity:1;"/>
<stop offset="0.278" style="stop-color:rgb(12.156863%,49.803922%,89.803922%);stop-opacity:1;"/>
<stop offset="0.569" style="stop-color:rgb(15.294118%,61.176471%,92.156863%);stop-opacity:1;"/>
<stop offset="0.82" style="stop-color:rgb(17.254902%,68.627451%,93.72549%);stop-opacity:1;"/>
<stop offset="1" style="stop-color:rgb(18.039216%,70.980392%,94.117647%);stop-opacity:1;"/>
</linearGradient>
<linearGradient id="linear1" gradientUnits="userSpaceOnUse" x1="11.5" y1="4.983" x2="11.5" y2="43.484" spreadMethod="reflect" gradientTransform="matrix(5.375,0,0,5.375,0,0)">
<stop offset="0" style="stop-color:rgb(64.313725%,64.313725%,64.313725%);stop-opacity:1;"/>
<stop offset="0.63" style="stop-color:rgb(49.803922%,49.803922%,49.803922%);stop-opacity:1;"/>
<stop offset="1" style="stop-color:rgb(43.529412%,43.529412%,43.529412%);stop-opacity:1;"/>
<stop offset="1" style="stop-color:rgb(43.529412%,43.529412%,43.529412%);stop-opacity:1;"/>
</linearGradient>
<linearGradient id="linear2" gradientUnits="userSpaceOnUse" x1="28.5" y1="12.157" x2="28.5" y2="52.463" spreadMethod="reflect" gradientTransform="matrix(5.375,0,0,5.375,0,0)">
<stop offset="0" style="stop-color:rgb(67.843137%,67.843137%,67.843137%);stop-opacity:1;"/>
<stop offset="0.476" style="stop-color:rgb(60.392157%,60.392157%,60.392157%);stop-opacity:1;"/>
<stop offset="1" style="stop-color:rgb(54.117647%,54.117647%,54.117647%);stop-opacity:1;"/>
</linearGradient>
</defs>
<g id="surface236431">
<path style=" stroke:none;fill-rule:nonzero;fill:url(#radial0);" d="M 322.5 198.875 L 317.125 198.875 C 313.191406 198.875 309.546875 197.742188 306.375 195.890625 L 306.375 158.859375 C 309.546875 157.007812 313.191406 155.875 317.125 155.875 L 317.214844 155.875 C 332.046875 155.875 344.046875 143.828125 344 129 C 343.953125 114.144531 331.890625 102.125 317.035156 102.125 L 301 102.125 C 299.445312 102.125 297.941406 101.921875 296.464844 101.667969 L 274.335938 73.210938 C 275.394531 59.339844 286.859375 48.375 301 48.375 L 304.035156 48.375 C 314.328125 48.375 322.5 40.203125 322.5 30.125 L 322.5 29.5625 C 322.5 19.171875 314.078125 10.75 303.6875 10.75 L 56.4375 10.75 C 46.085938 10.75 37.679688 19.113281 37.625 29.472656 L 37.625 29.5625 C 37.570312 39.9375 45.96875 48.375 56.347656 48.375 L 59.125 48.375 C 71 48.375 80.625 58 80.625 69.875 C 80.625 81.75 71 91.375 59.125 91.375 L 26.875 91.375 C 12.035156 91.375 0 103.410156 0 118.25 C 0 133.089844 12.035156 145.125 26.875 145.125 L 32.25 145.125 C 44.125 145.125 53.75 154.75 53.75 166.625 C 53.75 178.5 44.125 188.125 32.25 188.125 L 29.5625 188.125 C 13.234375 188.125 0 201.359375 0 217.6875 C 0 234.015625 13.234375 247.25 29.5625 247.25 L 86 247.25 C 94.90625 247.25 102.125 254.46875 102.125 263.375 C 102.125 272.28125 94.90625 279.5 86 279.5 L 83.3125 279.5 C 69.957031 279.5 59.125 290.332031 59.125 303.6875 C 59.125 317.042969 69.957031 327.875 83.3125 327.875 L 295.625 327.875 C 307.5 327.875 317.125 318.25 317.125 306.375 C 317.125 294.5 307.5 284.875 295.625 284.875 L 290.25 284.875 C 280 284.875 271.460938 277.6875 269.304688 268.082031 L 291.148438 241.875 L 322.5 241.875 C 334.375 241.875 344 232.25 344 220.375 C 344 208.5 334.375 198.875 322.5 198.875 Z M 322.5 198.875 "/>
<path style=" stroke:none;fill-rule:nonzero;fill:url(#linear0);" d="M 228.433594 231.125 C 226.726562 231.125 225.007812 230.585938 223.550781 229.476562 C 220.007812 226.777344 219.328125 221.71875 222.023438 218.175781 C 231.355469 205.933594 236.5 189.535156 236.5 172 C 236.5 152.683594 229.621094 134.578125 217.132812 121.023438 C 214.113281 117.75 214.328125 112.648438 217.601562 109.632812 C 220.875 106.613281 225.980469 106.824219 228.992188 110.101562 C 244.230469 126.640625 252.625 148.625 252.625 172 C 252.625 193.042969 246.316406 212.914062 234.851562 227.949219 C 233.265625 230.027344 230.863281 231.125 228.433594 231.125 Z M 277.425781 276.835938 C 303.027344 248.441406 317.125 211.210938 317.125 172 C 317.125 130.046875 301.015625 90.800781 271.769531 61.488281 C 268.621094 58.335938 263.519531 58.328125 260.371094 61.480469 C 257.21875 64.625 257.214844 69.730469 260.359375 72.878906 C 286.5625 99.148438 301 134.347656 301 172 C 301 207.21875 288.375 240.613281 265.449219 266.039062 C 262.464844 269.347656 262.734375 274.441406 266.039062 277.429688 C 267.578125 278.816406 269.511719 279.5 271.433594 279.5 C 273.640625 279.5 275.835938 278.601562 277.425781 276.835938 Z M 256.171875 249.675781 C 274.949219 226.761719 284.875 199.902344 284.875 172 C 284.875 141.46875 272.96875 112.613281 250.449219 88.554688 C 247.410156 85.304688 242.304688 85.132812 239.054688 88.175781 C 235.800781 91.21875 235.632812 96.324219 238.675781 99.570312 C 252.394531 114.230469 268.75 138.691406 268.75 172 C 268.75 196.132812 260.089844 219.457031 243.703125 239.449219 C 240.878906 242.894531 241.386719 247.976562 244.824219 250.796875 C 246.324219 252.027344 248.132812 252.625 249.933594 252.625 C 252.265625 252.625 254.582031 251.621094 256.171875 249.675781 Z M 256.171875 249.675781 "/>
<path style=" stroke:none;fill-rule:nonzero;fill:url(#linear1);" d="M 107.5 231.125 L 75.25 231.125 C 42.597656 231.125 16.125 204.652344 16.125 172 C 16.125 139.347656 42.597656 112.875 75.25 112.875 L 107.5 112.875 Z M 107.5 231.125 "/>
<path style=" stroke:none;fill-rule:nonzero;fill:url(#linear2);" d="M 173.398438 62.484375 L 107.5 112.875 L 107.5 231.195312 L 173.398438 281.585938 C 183.824219 289.5625 198.875 282.121094 198.875 268.992188 L 198.875 75.078125 C 198.875 61.945312 183.824219 54.507812 173.398438 62.484375 Z M 173.398438 62.484375 "/>
</g>
</svg>