<?xml version="1.0" encoding="UTF-8"?>
<svg xmlns="http://www.w3.org/2000/svg" xmlns:xlink="http://www.w3.org/1999/xlink" width="344px" height="344px" viewBox="0 0 344 344" version="1.1">
<g id="surface7295">
<path style=" stroke:none;fill-rule:nonzero;fill:rgb(90.980392%,28.235294%,28.627451%);fill-opacity:1;" d="M 5.308594 172 C 5.308594 79.953125 79.953125 5.308594 172 5.308594 C 264.046875 5.308594 338.691406 79.953125 338.691406 172 C 338.691406 264.046875 264.046875 338.691406 172 338.691406 C 79.953125 338.691406 5.308594 264.046875 5.308594 172 Z M 5.308594 172 "/>
<path style=" stroke:none;fill-rule:nonzero;fill:rgb(92.941176%,78.823529%,17.254902%);fill-opacity:1;" d="M 293.207031 240.195312 L 178.851562 55.898438 C 177.507812 53.75 175.15625 52.472656 172.671875 52.472656 C 170.117188 52.472656 167.765625 53.75 166.492188 55.898438 L 51.734375 240.664062 C 50.324219 242.949219 50.257812 245.773438 51.53125 248.054688 C 52.808594 250.339844 55.296875 251.820312 57.914062 251.820312 L 287.226562 251.820312 C 291.257812 251.820312 294.550781 248.527344 294.550781 244.496094 C 294.617188 242.882812 294.078125 241.40625 293.207031 240.195312 Z M 293.207031 240.195312 "/>
<path style=" stroke:none;fill-rule:nonzero;fill:rgb(0%,0%,0%);fill-opacity:1;" d="M 164.140625 175.628906 L 161.789062 140.152344 C 161.316406 133.234375 161.117188 128.261719 161.117188 125.238281 C 161.117188 121.140625 162.191406 117.914062 164.339844 115.628906 C 166.492188 113.34375 169.3125 112.203125 172.804688 112.203125 C 177.039062 112.203125 179.929688 113.679688 181.339844 116.636719 C 182.75 119.59375 183.488281 123.828125 183.488281 129.335938 C 183.488281 132.628906 183.289062 135.921875 182.953125 139.28125 L 179.792969 175.761719 C 179.457031 180.128906 178.71875 183.421875 177.578125 185.773438 C 176.433594 188.125 174.554688 189.265625 171.933594 189.265625 C 169.246094 189.265625 167.429688 188.125 166.355469 185.90625 C 165.347656 183.625 164.609375 180.195312 164.140625 175.628906 Z M 172.402344 224.339844 C 169.378906 224.339844 166.757812 223.398438 164.542969 221.449219 C 162.324219 219.5 161.183594 216.746094 161.183594 213.253906 C 161.183594 210.164062 162.257812 207.609375 164.40625 205.460938 C 166.558594 203.308594 169.179688 202.234375 172.269531 202.234375 C 175.359375 202.234375 178.046875 203.308594 180.265625 205.460938 C 182.480469 207.609375 183.554688 210.230469 183.554688 213.253906 C 183.554688 216.679688 182.414062 219.433594 180.195312 221.382812 C 177.914062 223.398438 175.359375 224.339844 172.402344 224.339844 Z M 172.402344 224.339844 "/>
</g>
</svg>