<?xml version="1.0" encoding="UTF-8"?>
<svg xmlns="http://www.w3.org/2000/svg" xmlns:xlink="http://www.w3.org/1999/xlink" width="344px" height="344px" viewBox="0 0 344 344" version="1.1">
<defs>
<radialGradient id="radial0" gradientUnits="userSpaceOnUse" cx="32.5" cy="31.5" fx="32.5" fy="31.5" r="30.516" spreadMethod="reflect" gradientTransform="matrix(5.375,0,0,5.375,0,0)">
<stop offset="0" style="stop-color:rgb(68.627451%,93.333333%,100%);stop-opacity:1;"/>
<stop offset="0.193" style="stop-color:rgb(73.333333%,94.509804%,100%);stop-opacity:1;"/>
<stop offset="0.703" style="stop-color:rgb(84.313725%,97.254902%,100%);stop-opacity:1;"/>
<stop offset="1" style="stop-color:rgb(88.235294%,98.039216%,100%);stop-opacity:1;"/>
</radialGradient>
<linearGradient id="linear0" gradientUnits="userSpaceOnUse" x1="32" y1="64.025" x2="32" y2="14.025" spreadMethod="reflect" gradientTransform="matrix(5.375,0,0,5.375,0,0)">
<stop offset="0" style="stop-color:rgb(8.235294%,36.078431%,87.058824%);stop-opacity:1;"/>
<stop offset="0.278" style="stop-color:rgb(12.156863%,49.803922%,89.803922%);stop-opacity:1;"/>
<stop offset="0.569" style="stop-color:rgb(15.294118%,61.176471%,92.156863%);stop-opacity:1;"/>
<stop offset="0.82" style="stop-color:rgb(17.254902%,68.627451%,93.72549%);stop-opacity:1;"/>
<stop offset="1" style="stop-color:rgb(18.039216%,70.980392%,94.117647%);stop-opacity:1;"/>
</linearGradient>
</defs>
<g id="surface7384">
<path style=" stroke:none;fill-rule:nonzero;fill:url(#radial0);" d="M 317.125 107.5 L 325.1875 107.5 C 336.839844 107.5 346.105469 96.761719 343.582031 84.695312 C 341.742188 75.90625 333.550781 69.875 324.570312 69.875 L 284.875 69.875 C 278.9375 69.875 274.125 65.0625 274.125 59.125 C 274.125 53.1875 278.9375 48.375 284.875 48.375 L 303.070312 48.375 C 312.046875 48.375 320.242188 42.34375 322.082031 33.554688 C 324.605469 21.488281 315.339844 10.75 303.6875 10.75 L 45.6875 10.75 C 35.339844 10.75 26.875 19.214844 26.875 29.5625 C 26.875 39.910156 35.339844 48.375 45.6875 48.375 L 53.75 48.375 C 59.6875 48.375 64.5 53.1875 64.5 59.125 C 64.5 65.0625 59.6875 69.875 53.75 69.875 L 24.804688 69.875 C 15.828125 69.875 7.632812 75.90625 5.792969 84.695312 C 3.269531 96.761719 12.535156 107.5 24.1875 107.5 L 96.75 107.5 L 96.75 172 L 24.804688 172 C 15.828125 172 7.632812 178.03125 5.792969 186.820312 C 3.269531 198.886719 12.535156 209.625 24.1875 209.625 L 26.875 209.625 C 32.8125 209.625 37.625 214.4375 37.625 220.375 C 37.625 226.3125 32.8125 231.125 26.875 231.125 L 24.1875 231.125 C 12.535156 231.125 3.269531 241.863281 5.792969 253.929688 C 7.632812 262.71875 15.828125 268.75 24.804688 268.75 L 53.75 268.75 C 59.6875 268.75 64.5 273.5625 64.5 279.5 C 64.5 285.4375 59.6875 290.25 53.75 290.25 L 46.304688 290.25 C 37.328125 290.25 29.132812 296.28125 27.292969 305.070312 C 24.769531 317.136719 34.035156 327.875 45.6875 327.875 L 298.3125 327.875 C 308.660156 327.875 317.125 319.410156 317.125 309.0625 C 317.125 298.714844 308.660156 290.25 298.3125 290.25 L 295.625 290.25 C 289.6875 290.25 284.875 285.4375 284.875 279.5 C 284.875 273.5625 289.6875 268.75 295.625 268.75 L 319.195312 268.75 C 328.171875 268.75 336.367188 262.71875 338.207031 253.929688 C 340.730469 241.863281 331.464844 231.125 319.8125 231.125 L 252.625 231.125 L 252.625 166.625 L 319.195312 166.625 C 328.171875 166.625 336.367188 160.59375 338.207031 151.804688 C 340.730469 139.738281 331.464844 129 319.8125 129 L 317.125 129 C 311.1875 129 306.375 124.1875 306.375 118.25 C 306.375 112.3125 311.1875 107.5 317.125 107.5 Z M 317.125 107.5 "/>
<path style=" stroke:none;fill-rule:nonzero;fill:url(#linear0);" d="M 306.375 166.625 C 306.375 240.828125 246.203125 301 172 301 C 97.796875 301 37.625 240.828125 37.625 166.625 C 37.625 92.421875 97.796875 32.25 172 32.25 C 246.203125 32.25 306.375 92.421875 306.375 166.625 Z M 306.375 166.625 "/>
<path style=" stroke:none;fill-rule:nonzero;fill:rgb(100%,100%,100%);fill-opacity:1;" d="M 166.625 150.5 L 177.375 150.5 C 183.3125 150.5 188.125 155.3125 188.125 161.25 L 188.125 220.375 C 188.125 226.3125 183.3125 231.125 177.375 231.125 L 166.625 231.125 C 160.6875 231.125 155.875 226.3125 155.875 220.375 L 155.875 161.25 C 155.875 155.3125 160.6875 150.5 166.625 150.5 Z M 188.125 118.25 C 188.125 127.160156 180.910156 134.375 172 134.375 C 163.089844 134.375 155.875 127.160156 155.875 118.25 C 155.875 109.339844 163.089844 102.125 172 102.125 C 180.910156 102.125 188.125 109.339844 188.125 118.25 Z M 188.125 118.25 "/>
</g>
</svg>