<?xml version="1.0" encoding="UTF-8"?>
<svg xmlns="http://www.w3.org/2000/svg" xmlns:xlink="http://www.w3.org/1999/xlink" width="344px" height="344px" viewBox="0 0 344 344" version="1.1">
<defs>
<radialGradient id="radial0" gradientUnits="userSpaceOnUse" cx="32" cy="32" fx="32" fy="32" r="33.002" spreadMethod="reflect" gradientTransform="matrix(5.375,0,0,5.375,0,0)">
<stop offset="0" style="stop-color:rgb(95.686275%,87.843137%,61.568627%);stop-opacity:1;"/>
<stop offset="0.226" style="stop-color:rgb(97.254902%,90.980392%,70.980392%);stop-opacity:1;"/>
<stop offset="0.513" style="stop-color:rgb(98.823529%,94.117647%,80.392157%);stop-opacity:1;"/>
<stop offset="0.778" style="stop-color:rgb(99.607843%,95.686275%,86.27451%);stop-opacity:1;"/>
<stop offset="1" style="stop-color:rgb(100%,96.470588%,88.235294%);stop-opacity:1;"/>
</radialGradient>
<linearGradient id="linear0" gradientUnits="userSpaceOnUse" x1="33" y1="58" x2="33" y2="6" spreadMethod="reflect" gradientTransform="matrix(5.375,0,0,5.375,0,0)">
<stop offset="0" style="stop-color:rgb(25.490196%,74.901961%,92.54902%);stop-opacity:1;"/>
<stop offset="0.235" style="stop-color:rgb(29.803922%,77.254902%,93.72549%);stop-opacity:1;"/>
<stop offset="0.651" style="stop-color:rgb(41.960784%,83.137255%,96.470588%);stop-opacity:1;"/>
<stop offset="1" style="stop-color:rgb(53.72549%,89.411765%,99.215686%);stop-opacity:1;"/>
</linearGradient>
<linearGradient id="linear1" gradientUnits="userSpaceOnUse" x1="38.879" y1="20.121" x2="46.454" y2="12.546" spreadMethod="reflect" gradientTransform="matrix(5.375,0,0,5.375,0,0)">
<stop offset="0" style="stop-color:rgb(78.039216%,93.72549%,99.215686%);stop-opacity:1;"/>
<stop offset="0.369" style="stop-color:rgb(72.156863%,92.54902%,99.215686%);stop-opacity:1;"/>
<stop offset="1" style="stop-color:rgb(58.431373%,89.803922%,99.215686%);stop-opacity:1;"/>
</linearGradient>
<linearGradient id="linear2" gradientUnits="userSpaceOnUse" x1="45.5" y1="24.083" x2="45.5" y2="18.083" spreadMethod="reflect" gradientTransform="matrix(5.375,0,0,5.375,0,0)">
<stop offset="0" style="stop-color:rgb(25.882353%,77.647059%,93.333333%);stop-opacity:1;"/>
<stop offset="0.534" style="stop-color:rgb(23.137255%,76.470588%,92.941176%);stop-opacity:1;"/>
<stop offset="1" style="stop-color:rgb(19.215686%,74.901961%,92.156863%);stop-opacity:1;"/>
</linearGradient>
<linearGradient id="linear3" gradientUnits="userSpaceOnUse" x1="33.5" y1="42.86" x2="33.5" y2="15.612" spreadMethod="reflect" gradientTransform="matrix(5.375,0,0,5.375,0,0)">
<stop offset="0" style="stop-color:rgb(8.235294%,36.078431%,87.058824%);stop-opacity:1;"/>
<stop offset="0.201" style="stop-color:rgb(9.411765%,40.784314%,87.843137%);stop-opacity:1;"/>
<stop offset="0.564" style="stop-color:rgb(12.941176%,52.941176%,90.588235%);stop-opacity:1;"/>
<stop offset="1" style="stop-color:rgb(18.039216%,70.980392%,94.117647%);stop-opacity:1;"/>
</linearGradient>
</defs>
<g id="surface235104">
<path style=" stroke:none;fill-rule:nonzero;fill:url(#radial0);" d="M 298.066406 245.464844 C 300.753906 250.292969 306.148438 252.652344 311.675781 252.625 C 321.082031 252.582031 328.621094 260.597656 327.808594 270.160156 C 327.09375 278.628906 319.457031 284.875 310.953125 284.875 L 258 284.875 L 258 290.25 L 37.625 290.25 C 28.433594 290.25 21.039062 282.558594 21.523438 273.257812 C 21.976562 264.535156 29.804688 258 38.539062 258 L 43 258 C 49.53125 258 54.695312 252.179688 53.605469 245.445312 C 52.746094 240.160156 47.777344 236.5 42.425781 236.5 L 16.125 236.5 C 6.933594 236.5 -0.460938 228.808594 0.0234375 219.507812 C 0.476562 210.785156 8.304688 204.25 17.039062 204.25 L 51.0625 204.25 C 58.484375 204.25 64.5 198.234375 64.5 190.8125 C 64.5 183.390625 58.484375 177.375 51.0625 177.375 C 43.640625 177.375 37.625 171.359375 37.625 163.9375 C 37.625 156.515625 43.640625 150.5 51.0625 150.5 L 96.75 150.5 L 96.75 112.875 L 56.4375 112.875 C 45.714844 112.875 37.082031 103.898438 37.652344 93.050781 C 38.183594 82.878906 47.316406 75.25 57.5 75.25 L 96.75 75.25 L 96.75 53.75 L 303.6875 53.75 C 314.410156 53.75 323.042969 62.726562 322.472656 73.574219 C 321.941406 83.746094 312.808594 91.375 302.625 91.375 L 287.5625 91.375 C 276.839844 91.375 268.207031 100.351562 268.777344 111.199219 C 269.308594 121.371094 278.441406 129 288.625 129 L 301 129 C 310.550781 129 318.167969 137.308594 317.007812 147.09375 C 316.042969 155.203125 308.695312 160.917969 300.539062 161.253906 C 294.105469 161.523438 289.132812 167.453125 290.464844 174.1875 C 291.476562 179.28125 296.285156 182.75 301.476562 182.75 L 325.1875 182.75 C 335.910156 182.75 344.542969 191.726562 343.972656 202.574219 C 343.441406 212.746094 334.308594 220.375 324.125 220.375 L 311.75 220.375 C 299.96875 220.375 291.140625 233.007812 298.066406 245.464844 Z M 13.4375 177.375 C 20.859375 177.375 26.875 171.359375 26.875 163.9375 C 26.875 156.515625 20.859375 150.5 13.4375 150.5 C 6.015625 150.5 0 156.515625 0 163.9375 C 0 171.359375 6.015625 177.375 13.4375 177.375 Z M 13.4375 177.375 "/>
<path style=" stroke:none;fill-rule:nonzero;fill:url(#linear0);" d="M 268.75 311.75 L 86 311.75 C 77.09375 311.75 69.875 304.53125 69.875 295.625 L 69.875 48.375 C 69.875 39.46875 77.09375 32.25 86 32.25 L 197.570312 32.25 C 201.847656 32.25 205.949219 33.949219 208.96875 36.976562 L 280.148438 108.15625 C 283.175781 111.175781 284.875 115.277344 284.875 119.554688 L 284.875 295.625 C 284.875 304.53125 277.65625 311.75 268.75 311.75 Z M 268.75 311.75 "/>
<path style=" stroke:none;fill-rule:nonzero;fill:url(#linear1);" d="M 280.148438 108.15625 L 208.96875 36.976562 C 207.597656 35.605469 205.980469 34.546875 204.25 33.75 L 204.25 96.75 C 204.25 105.65625 211.46875 112.875 220.375 112.875 L 283.375 112.875 C 282.585938 111.144531 281.527344 109.527344 280.148438 108.15625 Z M 280.148438 108.15625 "/>
<path style=" stroke:none;fill-rule:nonzero;fill:url(#linear2);" d="M 220.375 112.875 C 211.46875 112.875 204.25 105.65625 204.25 96.75 L 204.25 112.875 C 204.25 121.78125 211.46875 129 220.375 129 L 284.875 129 L 284.875 119.554688 C 284.875 117.222656 284.328125 114.960938 283.375 112.875 Z M 220.375 112.875 "/>
<path style=" stroke:none;fill-rule:nonzero;fill:url(#linear3);" d="M 139.75 236.644531 L 139.75 155.730469 C 139.75 151.675781 144.277344 149.171875 147.84375 151.238281 L 217.746094 191.695312 C 221.246094 193.71875 221.246094 198.65625 217.746094 200.679688 L 147.84375 241.136719 C 144.277344 243.203125 139.75 240.691406 139.75 236.644531 Z M 139.75 236.644531 "/>
</g>
</svg>