<?xml version="1.0" encoding="UTF-8"?>
<svg xmlns="http://www.w3.org/2000/svg" xmlns:xlink="http://www.w3.org/1999/xlink" width="344px" height="344px" viewBox="0 0 344 344" version="1.1">
<defs>
<radialGradient id="radial0" gradientUnits="userSpaceOnUse" cx="32.5" cy="32" fx="32.5" fy="32" r="30.276" spreadMethod="reflect" gradientTransform="matrix(5.375,0,0,5.375,0,0)">
<stop offset="0" style="stop-color:rgb(68.627451%,93.333333%,100%);stop-opacity:1;"/>
<stop offset="0.193" style="stop-color:rgb(73.333333%,94.509804%,100%);stop-opacity:1;"/>
<stop offset="0.703" style="stop-color:rgb(84.313725%,97.254902%,100%);stop-opacity:1;"/>
<stop offset="1" style="stop-color:rgb(88.235294%,98.039216%,100%);stop-opacity:1;"/>
</radialGradient>
<linearGradient id="linear0" gradientUnits="userSpaceOnUse" x1="32" y1="57.998" x2="32" y2="6" spreadMethod="reflect" gradientTransform="matrix(5.375,0,0,5.375,0,0)">
<stop offset="0" style="stop-color:rgb(100%,38.823529%,30.196078%);stop-opacity:1;"/>
<stop offset="0.225" style="stop-color:rgb(99.215686%,39.215686%,40.392157%);stop-opacity:1;"/>
<stop offset="0.528" style="stop-color:rgb(98.823529%,39.607843%,51.372549%);stop-opacity:1;"/>
<stop offset="0.793" style="stop-color:rgb(98.039216%,40%,58.039216%);stop-opacity:1;"/>
<stop offset="0.989" style="stop-color:rgb(98.039216%,40%,60.392157%);stop-opacity:1;"/>
</linearGradient>
</defs>
<g id="surface7158">
<path style=" stroke:none;fill-rule:nonzero;fill:url(#radial0);" d="M 317.125 112.875 L 325.1875 112.875 C 336.839844 112.875 346.105469 102.136719 343.582031 90.070312 C 341.742188 81.28125 333.550781 75.25 324.570312 75.25 L 274.125 75.25 C 268.1875 75.25 263.375 70.4375 263.375 64.5 C 263.375 58.5625 268.1875 53.75 274.125 53.75 L 292.320312 53.75 C 301.296875 53.75 309.492188 47.71875 311.332031 38.929688 C 313.855469 26.863281 304.589844 16.125 292.9375 16.125 L 45.6875 16.125 C 35.339844 16.125 26.875 24.589844 26.875 34.9375 C 26.875 45.285156 35.339844 53.75 45.6875 53.75 L 59.125 53.75 C 65.0625 53.75 69.875 58.5625 69.875 64.5 C 69.875 70.4375 65.0625 75.25 59.125 75.25 L 24.804688 75.25 C 15.828125 75.25 7.632812 81.28125 5.792969 90.070312 C 3.269531 102.136719 12.535156 112.875 24.1875 112.875 L 96.75 112.875 L 96.75 172 L 24.804688 172 C 15.828125 172 7.632812 178.03125 5.792969 186.820312 C 3.269531 198.886719 12.535156 209.625 24.1875 209.625 L 37.625 209.625 C 43.5625 209.625 48.375 214.4375 48.375 220.375 C 48.375 226.3125 43.5625 231.125 37.625 231.125 L 24.1875 231.125 C 12.535156 231.125 3.269531 241.863281 5.792969 253.929688 C 7.632812 262.71875 15.828125 268.75 24.804688 268.75 L 64.5 268.75 C 70.4375 268.75 75.25 273.5625 75.25 279.5 C 75.25 285.4375 70.4375 290.25 64.5 290.25 L 46.304688 290.25 C 37.328125 290.25 29.132812 296.28125 27.292969 305.070312 C 24.769531 317.136719 34.035156 327.875 45.6875 327.875 L 287.5625 327.875 C 297.910156 327.875 306.375 319.410156 306.375 309.0625 C 306.375 298.714844 297.910156 290.25 287.5625 290.25 L 279.5 290.25 C 273.5625 290.25 268.75 285.4375 268.75 279.5 C 268.75 273.5625 273.5625 268.75 279.5 268.75 L 308.445312 268.75 C 317.421875 268.75 325.617188 262.71875 327.457031 253.929688 C 329.980469 241.863281 320.714844 231.125 309.0625 231.125 L 252.625 231.125 L 252.625 172 L 319.195312 172 C 328.171875 172 336.367188 165.96875 338.207031 157.179688 C 340.730469 145.113281 331.464844 134.375 319.8125 134.375 L 317.125 134.375 C 311.1875 134.375 306.375 129.5625 306.375 123.625 C 306.375 117.6875 311.1875 112.875 317.125 112.875 Z M 317.125 112.875 "/>
<path style=" stroke:none;fill-rule:nonzero;fill:url(#linear0);" d="M 231.125 59.152344 C 211.925781 52.578125 196.402344 43.996094 184.625 36.097656 C 176.964844 30.964844 167.039062 30.964844 159.378906 36.097656 C 147.597656 43.996094 132.078125 52.578125 112.875 59.152344 C 91.972656 66.304688 73.101562 68.886719 58.519531 69.636719 C 52.792969 69.933594 48.371094 74.664062 48.390625 80.394531 C 48.59375 137.75 52.132812 208.019531 112.875 268.753906 C 121.792969 277.671875 144.914062 296.058594 159.460938 307.417969 C 166.835938 313.175781 177.160156 313.175781 184.535156 307.417969 C 199.078125 296.058594 222.203125 277.671875 231.121094 268.753906 C 291.863281 208.019531 295.398438 137.75 295.609375 80.386719 C 295.628906 74.660156 291.203125 69.929688 285.480469 69.632812 C 270.898438 68.878906 252.027344 66.304688 231.125 59.152344 Z M 231.125 59.152344 "/>
<path style=" stroke:none;fill-rule:nonzero;fill:rgb(100%,100%,100%);fill-opacity:1;" d="M 172 209.625 C 166.0625 209.625 161.25 214.4375 161.25 220.375 C 161.25 226.3125 166.0625 231.125 172 231.125 C 177.9375 231.125 182.75 226.3125 182.75 220.375 C 182.75 214.4375 177.9375 209.625 172 209.625 Z M 172 193.5 C 165.953125 193.5 160.9375 188.808594 160.535156 182.773438 L 155.875 112.875 L 188.125 112.875 L 183.464844 182.773438 C 183.0625 188.808594 178.046875 193.5 172 193.5 Z M 172 193.5 "/>
<path style=" stroke:none;fill-rule:nonzero;fill:rgb(100%,100%,100%);fill-opacity:1;" d="M 172 96.75 C 163.09375 96.75 155.875 103.96875 155.875 112.875 C 155.875 121.78125 163.09375 129 172 129 C 180.90625 129 188.125 121.78125 188.125 112.875 C 188.125 103.96875 180.90625 96.75 172 96.75 Z M 172 96.75 "/>
</g>
</svg>